<svg width="103" height="33" viewBox="0 0 103 33" fill="none" xmlns="http://www.w3.org/2000/svg">
<mask id="mask0" mask-type="alpha" maskUnits="userSpaceOnUse" x="0" y="0" width="11" height="19">
<path fill-rule="evenodd" clip-rule="evenodd" d="M0 0.898926H10.0863V18.9245H0V0.898926Z" fill="white"/>
</mask>
<g mask="url(#mask0)">
<path fill-rule="evenodd" clip-rule="evenodd" d="M9.79682 11.5914C10.0543 11.3621 10.1935 11.1906 9.98568 11.1906C9.55134 11.1906 6.92125 11.5748 6.3794 9.60808C5.83718 7.64157 8.73658 1.70771 8.84588 1.45338C8.95089 1.20906 8.73389 0.898926 8.41548 0.898926C8.1028 0.898926 7.87344 1.23482 7.84047 1.27595C4.88123 4.94981 0.749934 9.53815 0.217754 11.5159C-1.12864 16.5235 4.07705 18.553 7.36295 18.9239C7.42118 18.9303 7.45003 18.8847 7.45003 18.8497V17.0717C7.45003 14.6722 8.35707 12.875 9.79682 11.5914Z" fill="white"/>
</g>
<path fill-rule="evenodd" clip-rule="evenodd" d="M92.0322 11.5914C91.7747 11.3621 91.6355 11.1906 91.8433 11.1906C92.2777 11.1906 94.9077 11.5748 95.4496 9.60808C95.9918 7.64157 93.0924 1.70771 92.9831 1.45338C92.8781 1.20906 93.0951 0.898926 93.4135 0.898926C93.7262 0.898926 93.9556 1.23482 93.9885 1.27595C96.9478 4.94981 101.079 9.53815 101.611 11.5159C102.958 16.5235 97.752 18.553 94.4661 18.9239C94.4078 18.9303 94.3792 18.8847 94.3792 18.8497V17.0717C94.3792 14.6722 93.4719 12.875 92.0322 11.5914Z" fill="white"/>
<path fill-rule="evenodd" clip-rule="evenodd" d="M88.5737 24.375C88.5737 26.317 85.9508 27.4264 84.2439 27.4264C82.4178 27.4264 79.8345 26.317 79.8345 24.375V17.5316C79.8345 15.5907 82.4178 14.6793 84.2439 14.6793C85.9508 14.6793 88.5737 15.5907 88.5737 17.5316V24.375ZM84.2439 10.4393C80.1946 10.4796 75.4683 12.8168 75.4683 17.5316V24.7034C75.4683 29.4976 80.1946 31.7563 84.2439 31.7957C88.2135 31.7563 92.9404 29.4976 92.9404 24.7034V17.5316C92.9404 12.8168 88.2135 10.4796 84.2439 10.4393Z" fill="white"/>
<path fill-rule="evenodd" clip-rule="evenodd" d="M58.0631 24.375C58.0631 26.317 55.4393 27.4264 53.7328 27.4264C51.9072 27.4264 49.3239 26.317 49.3239 24.375V17.5316C49.3239 15.5907 51.9072 14.6793 53.7328 14.6793C55.4393 14.6793 58.0631 15.5907 58.0631 17.5316V24.375ZM53.7328 10.4393C49.6841 10.4796 44.9575 12.8168 44.9575 17.5316V24.7034C44.9575 29.4976 49.6841 31.7563 53.7328 31.7957C57.7026 31.7563 62.4295 29.4976 62.4295 24.7034V17.5316C62.4295 12.8168 57.7026 10.4796 53.7328 10.4393Z" fill="white"/>
<path fill-rule="evenodd" clip-rule="evenodd" d="M44.6305 12.0006C41.3985 11.1276 39.0085 10.7624 35.5447 10.7618C32.0798 10.7609 29.6837 11.1271 26.4577 11.9974C26.3047 12.0315 26.2747 12.188 26.3453 12.2825C27.4497 13.1936 27.9132 14.4112 28.1279 15.7853C29.9022 15.3547 31.5019 15.1034 33.3615 14.9994V31.6548C33.3597 31.7141 33.4031 31.7506 33.4663 31.7506H37.6213C37.693 31.7562 37.7283 31.725 37.7274 31.6585V15.0023C39.5155 15.1078 41.0072 15.3579 42.768 15.7853C43.0361 14.4189 43.5955 13.1447 44.7267 12.2916C44.8271 12.1675 44.7409 12.0303 44.6305 12.0006Z" fill="white"/>
<path fill-rule="evenodd" clip-rule="evenodd" d="M75.6267 10.5865C75.3161 10.543 74.3994 10.411 73.592 10.4412C69.6146 10.5932 65.1167 12.9359 65.1167 17.5317V17.9023V24.704V31.6994C65.1153 31.7586 65.1585 31.7952 65.2219 31.7952H69.3769C69.4487 31.8008 69.484 31.7696 69.4826 31.7029V31.332H69.4833V17.5317C69.4833 16.0161 71.3527 15.0791 72.9124 14.7632C73.3659 13.2521 74.257 12.162 75.6207 11.069C75.8598 10.8774 75.8469 10.6169 75.6267 10.5865Z" fill="white"/>
<path fill-rule="evenodd" clip-rule="evenodd" d="M21.7664 18.7414C21.7664 18.7899 21.7477 18.8344 21.7169 18.8666C21.6834 18.902 21.6356 18.9245 21.5829 18.9245H13.619V17.4808C13.619 15.5113 15.964 14.5873 17.8161 14.5873C19.5473 14.5873 21.7674 15.5113 21.7674 17.4808L21.7664 18.7414ZM17.816 10.2871C13.7093 10.3275 9.19043 12.6983 9.19043 17.4808V24.7543C9.19043 29.617 13.7093 31.9081 17.816 31.948C20.7583 31.9189 24.1081 30.7041 25.7025 28.1288C25.7557 28.0433 25.7086 27.9306 25.6276 27.8834C24.2219 27.0789 23.4059 26.6334 22.0127 25.8507C21.9688 25.826 21.9215 25.826 21.8859 25.8852C21.1247 27.1508 19.182 27.8492 17.816 27.8492C15.964 27.8492 13.619 26.7237 13.619 24.7543V22.5812H25.0033C25.6115 22.5812 26.1043 22.0894 26.1043 21.4822V17.4808C26.1043 12.6983 21.8423 10.3275 17.816 10.2871Z" fill="white"/>
</svg>
