<svg width="150" height="150" viewBox="0 0 150 150" fill="none" xmlns="http://www.w3.org/2000/svg">
<path d="M74.749 25C53.8284 25 36.6736 42.1549 36.6736 63.0754C36.6736 83.996 53.8284 101.151 74.749 101.151C95.6695 101.151 112.824 83.996 112.824 63.0754C112.824 42.1549 95.6695 25 74.749 25ZM74.749 89.4353C60.1046 89.4353 48.3891 77.7198 48.3891 63.0754C48.3891 48.4311 60.1046 36.7157 74.749 36.7157C89.3933 36.7157 101.109 48.4311 101.109 63.0754C100.69 77.7198 88.9749 89.4353 74.749 89.4353ZM108.64 97.8034L74.749 112.448L40.8577 97.8034L35 108.264L74.749 125L114.498 108.264L108.64 97.8034Z" fill="white"/>
</svg>
