<svg width="150" height="150" viewBox="0 0 150 150" fill="none" xmlns="http://www.w3.org/2000/svg">
<path d="M78.239 96.2368C102.172 94.1293 120.718 82.7008 119.662 70.7105C118.606 58.7201 98.3487 50.7085 74.4155 52.8159C50.4823 54.9234 31.9365 66.3519 32.9924 78.3423C34.0482 90.3326 54.3058 98.3442 78.239 96.2368Z" fill="white"/>
<path d="M118.022 58.8589C118.237 58.8589 118.41 58.902 118.626 59.0315C118.799 59.1178 118.971 59.2905 119.057 59.4631C119.187 59.6789 119.23 59.8516 119.23 60.0673C119.23 60.2831 119.187 60.4989 119.057 60.6716C118.971 60.8442 118.799 61.0169 118.626 61.1032C118.453 61.1895 118.237 61.2758 118.022 61.2758C117.806 61.2758 117.59 61.2326 117.417 61.1032C117.245 61.0169 117.072 60.8442 116.986 60.6716C116.9 60.4989 116.813 60.2831 116.813 60.0673C116.813 59.8516 116.856 59.6358 116.986 59.4631C117.115 59.2905 117.245 59.1178 117.461 59.0315C117.633 58.902 117.849 58.8589 118.022 58.8589ZM118.022 58.9452C117.849 58.9452 117.676 58.9884 117.461 59.0747C117.245 59.161 117.158 59.2905 117.029 59.4631C116.943 59.6358 116.9 59.8084 116.9 60.0242C116.9 60.1968 116.943 60.4126 117.029 60.5853C117.115 60.7579 117.245 60.8874 117.417 60.9737C117.59 61.06 117.763 61.1032 117.979 61.1032C118.151 61.1032 118.367 61.06 118.54 60.9737C118.712 60.8874 118.842 60.7579 118.928 60.5853C119.014 60.4126 119.057 60.24 119.057 60.0242C119.057 59.8516 119.014 59.6358 118.928 59.4631C118.842 59.2905 118.712 59.161 118.496 59.0747C118.281 58.9884 118.237 58.9452 118.022 58.9452ZM117.374 59.2905H118.022C118.194 59.2905 118.324 59.3336 118.41 59.42C118.496 59.5063 118.54 59.5926 118.54 59.6789C118.54 59.7652 118.496 59.8515 118.453 59.8947C118.41 59.981 118.281 60.0242 118.151 60.0242L118.496 60.5421C118.54 60.5853 118.583 60.6284 118.626 60.6716C118.669 60.6716 118.669 60.7147 118.712 60.7147V60.7579H118.41L117.892 60.0673H117.763V60.6284C117.763 60.6716 117.806 60.7147 117.806 60.7147C117.849 60.7147 117.892 60.7579 117.979 60.7579V60.8011H117.331V60.7579C117.374 60.7579 117.417 60.7579 117.461 60.7579C117.504 60.7579 117.504 60.7147 117.504 60.7147C117.504 60.7147 117.504 60.6284 117.504 60.5421V59.6358C117.504 59.5494 117.504 59.5063 117.504 59.5063C117.504 59.4631 117.461 59.4631 117.461 59.4631C117.461 59.4631 117.417 59.4631 117.331 59.4631V59.2905H117.374ZM117.763 60.0242C117.892 60.0242 117.979 60.0242 118.065 59.981C118.108 59.9379 118.194 59.9379 118.194 59.8516C118.237 59.8084 118.237 59.7652 118.237 59.6789C118.237 59.5926 118.194 59.5063 118.151 59.4631C118.108 59.42 118.022 59.3768 117.892 59.3768C117.849 59.3768 117.806 59.3768 117.763 59.42V60.0242Z" fill="#003A70"/>
<path d="M120.05 70.0804C121.733 83.6324 101.794 97.2275 75.5098 100.464C49.2258 103.701 26.783 95.3285 25.0998 81.7765C23.4166 68.2245 43.2267 54.6294 69.5107 51.3924C95.7946 48.1555 118.41 56.5284 120.05 70.0804ZM74.4308 52.8167C50.4774 54.9315 31.9189 66.3687 32.9979 78.3669C34.0769 90.3652 54.3186 98.3928 78.272 96.278C102.225 94.1632 120.784 82.726 119.705 70.7278C118.626 58.6863 98.3842 50.7019 74.4308 52.8167Z" fill="#00953B"/>
<path d="M119.489 81.8628C122.254 81.8628 124.496 79.6213 124.496 76.8563C124.496 74.0913 122.254 71.8499 119.489 71.8499C116.724 71.8499 114.483 74.0913 114.483 76.8563C114.483 79.6213 116.724 81.8628 119.489 81.8628Z" fill="#D7282F"/>
<path d="M50.6069 72.6266H50.7795C51.3406 72.6698 51.5996 72.8424 51.6859 72.9288C51.7722 73.0151 51.9017 73.3172 51.9017 74.2235V77.8489C51.9017 78.7121 51.8154 79.3595 51.5996 79.7479C51.2543 80.4385 50.5637 80.7837 49.4848 80.7837C48.5353 80.7837 47.8879 80.4385 47.5426 79.7911C47.37 79.4026 47.2836 78.8847 47.2836 78.151V73.6625C47.2836 73.0582 47.4131 72.8856 47.4563 72.8424C47.5426 72.7993 47.7584 72.6698 48.3626 72.6266H48.5353V71.9792H44.1762V72.6266H44.3488C44.9962 72.6698 45.1688 72.7993 45.2552 72.8424C45.2983 72.8856 45.4278 73.0582 45.4278 73.6625V78.0215C45.4278 78.9279 45.6004 79.6616 45.9025 80.2227C46.5068 81.2585 47.5858 81.8196 49.1827 81.8196C50.7795 81.8196 51.9017 81.3016 52.4628 80.2227C52.7649 79.6616 52.9375 78.8416 52.9375 77.8489V74.2235C52.9375 73.3172 53.067 73.0582 53.1533 72.9719C53.2396 72.8424 53.4554 72.713 54.0596 72.6698H54.2323V72.0224H50.5637V72.6266H50.6069Z" fill="#003A70"/>
<path d="M41.5435 74.9572L40.0329 74.0077C39.4718 73.6624 39.0834 73.3603 38.8244 73.0582C38.5655 72.7993 38.4792 72.454 38.4792 72.0655C38.4792 71.634 38.6086 71.2887 38.9107 71.0729C39.2129 70.8139 39.6013 70.6845 40.0329 70.6845C40.594 70.6845 41.155 70.9002 41.7593 71.2887C42.3203 71.6771 42.7519 72.454 43.0109 73.4898L43.054 73.6624H43.8741L43.4425 69.6055H42.7088V69.7349C42.6656 69.9076 42.6224 69.9939 42.5361 70.0802C42.493 70.1234 42.4066 70.1665 42.2772 70.1665C42.2772 70.1665 42.1045 70.1234 41.3708 69.9076C40.8098 69.6918 40.2918 69.6055 39.9034 69.6055C38.9107 69.6055 38.0907 69.9076 37.4433 70.5118C36.8391 71.116 36.537 71.8929 36.537 72.8424C36.537 73.533 36.7959 74.1804 37.3139 74.7846C37.5728 75.0867 37.9612 75.3888 38.3928 75.6909L39.8602 76.5973C40.6803 77.1152 41.2413 77.5036 41.5003 77.7626C41.8887 78.151 42.0614 78.5826 42.0614 79.1005C42.0614 79.6616 41.8887 80.0932 41.5435 80.3953C41.1982 80.6974 40.7666 80.87 40.2487 80.87C39.2992 80.87 38.5223 80.4816 37.8749 79.7479C37.4865 79.3163 37.1844 78.7121 36.8823 77.9784L36.8391 77.8489H36.0622L36.6233 81.949H37.357L37.4002 81.7764C37.4002 81.6469 37.4433 81.5606 37.5296 81.4311C37.5728 81.3879 37.6591 81.3448 37.7454 81.3448C37.7454 81.3448 37.9181 81.3448 38.6949 81.6469C39.2992 81.8627 39.9034 81.949 40.4213 81.949C41.5435 81.949 42.4498 81.6037 43.1835 80.9995C43.9172 80.3521 44.2625 79.5321 44.2625 78.5826C44.2625 77.8489 44.0467 77.2447 43.6583 76.7267C43.1835 76.0794 42.5361 75.5183 41.5435 74.9572Z" fill="#003A70"/>
<path d="M57.9871 77.5899C58.2029 77.5899 58.4187 77.5899 58.5914 77.5899C59.6703 77.5899 60.5767 77.3741 61.3104 76.8993C62.0873 76.4246 62.4325 75.6909 62.4325 74.6551C62.4325 73.835 62.0873 73.1877 61.3967 72.6697C60.7493 72.195 59.7998 71.936 58.5482 71.936H54.6639V72.5834H54.8365C55.4407 72.6266 55.6134 72.7561 55.6565 72.7992C55.6997 72.8424 55.8292 73.0582 55.8292 73.6192V79.6615C55.8292 80.3521 55.7429 80.5679 55.6997 80.6542C55.6565 80.6974 55.4839 80.8268 54.8365 80.9132H54.6639V81.5605H58.9798V80.9132H58.8072C58.1166 80.87 57.9008 80.7405 57.8577 80.6974C57.8145 80.6542 57.685 80.4816 57.685 79.8773V77.5467C57.7713 77.5467 57.8577 77.5899 57.9871 77.5899ZM57.685 73.1445C57.685 72.9719 57.7282 72.9287 57.7282 72.9287C57.7282 72.9287 57.8145 72.8855 58.1166 72.8855C58.6777 72.8855 59.1524 72.9719 59.5409 73.1445C60.1883 73.4466 60.5335 73.9645 60.5335 74.6982C60.5335 75.5183 60.2314 76.0793 59.6272 76.3814C59.2819 76.5541 58.8072 76.6404 58.2029 76.6404C58.1166 76.6404 58.0735 76.6404 57.9871 76.6404C57.944 76.6404 57.8145 76.6404 57.685 76.5972V73.1445Z" fill="#003A70"/>
<path d="M69.5538 78.8415L69.5107 78.971C69.1654 79.7047 68.8201 80.1795 68.3885 80.3521C67.9569 80.5247 67.3095 80.6542 66.36 80.6542C65.2379 80.6542 64.9358 80.611 64.8495 80.5679C64.8063 80.5679 64.72 80.5247 64.72 80.2658V77.0288H66.6621C67.3527 77.0288 67.5685 77.1583 67.6548 77.2446C67.7411 77.3309 67.8706 77.5899 68.0001 78.2373L68.0432 78.4099H68.7338V74.7845H68.0432L68.0001 74.9572C67.8706 75.5614 67.7411 75.8204 67.6548 75.9067C67.5685 75.993 67.3527 76.1225 66.6621 76.1225H64.72V73.1445C64.72 72.9719 64.7631 72.9287 64.72 72.9287C64.72 72.9287 64.8063 72.8855 64.9358 72.8855H66.8348C67.8274 72.8855 68.1727 73.015 68.3022 73.1013C68.4317 73.1877 68.6043 73.4898 68.777 74.1803L68.8201 74.353H69.5538L69.5107 71.936H61.6988V72.5834H61.8715C62.4757 72.6266 62.6915 72.7561 62.7347 72.7992C62.7778 72.8424 62.9073 73.0582 62.9073 73.6192V79.8342C62.9073 80.4816 62.7778 80.611 62.7347 80.6542C62.6483 80.6974 62.4757 80.8268 61.8283 80.87H61.6557V81.5174H69.597L70.3307 78.7552H69.5538V78.8415Z" fill="#003A70"/>
<path d="M78.6173 80.7837C78.4446 80.6974 78.3151 80.5679 78.1425 80.3521L75.4666 77.072C76.114 76.9425 76.6751 76.6836 77.0635 76.3383C77.5814 75.9067 77.8404 75.3456 77.8404 74.5687C77.8404 73.4466 77.2793 72.6697 76.1572 72.2382C75.5961 72.0224 74.9056 71.936 74.0855 71.936H69.9854V72.5834H70.158C70.7623 72.6266 70.9349 72.7561 71.0212 72.7992C71.0644 72.8424 71.1939 73.0582 71.1939 73.6192V79.6615C71.1939 80.3952 71.1075 80.5679 71.0644 80.6542C71.0212 80.6974 70.8486 80.8268 70.2012 80.9132H70.0286V81.5605H74.3445V80.9132H74.1719C73.5245 80.87 73.3518 80.7405 73.2655 80.6974C73.2224 80.6542 73.0929 80.4816 73.0929 79.8773V77.3309H73.395L76.8909 81.6469H79.4373V80.9995H79.2646C79.0057 80.9132 78.7899 80.87 78.6173 80.7837ZM73.0497 76.3814V73.1445C73.0497 72.9719 73.0929 72.9287 73.0929 72.9287C73.0929 72.9287 73.2224 72.8855 73.6971 72.8855C74.2582 72.8855 74.6898 72.9719 75.035 73.1013C75.6393 73.3603 75.8982 73.835 75.8982 74.5687C75.8982 75.3025 75.5961 75.8204 74.9056 76.0793C74.5603 76.252 73.9129 76.3814 73.0497 76.3814Z" fill="#003A70"/>
<path d="M86.0407 78.6257L82.9763 71.936H79.8689V72.5834H80.0847C80.7752 72.6266 80.991 72.7561 81.0342 72.7992C81.1205 72.8424 81.2068 73.0582 81.2068 73.6192V79.3163C81.2068 80.2226 81.0773 80.4816 80.991 80.611C80.9047 80.6974 80.6889 80.87 79.9984 80.9132H79.8257V81.5605H83.5374V80.9132H83.3648C82.7605 80.87 82.5879 80.7405 82.5016 80.6542C82.3721 80.5247 82.2426 80.1795 82.2426 79.3163V74.7414L85.4364 81.6469H85.9112L89.1481 74.4393V79.7479C89.1481 80.4816 89.0186 80.6974 88.9755 80.7405C88.9323 80.7837 88.7597 80.9132 88.0691 80.9563H87.8965V81.6037H92.2124V80.9563H92.0398C91.4356 80.9132 91.2198 80.7837 91.1766 80.7405C91.1334 80.6974 91.004 80.5247 91.004 79.9205V73.6624C91.004 73.1013 91.0903 72.8855 91.1766 72.8424C91.2198 72.7992 91.4356 72.6697 92.0398 72.6266H92.2124V71.9792H89.105L86.0407 78.6257Z" fill="#003A70"/>
<path d="M95.9673 80.7406C95.9241 80.6974 95.7946 80.5679 95.7946 79.9206V73.6625C95.7946 73.0582 95.9241 72.8856 95.9673 72.8424C96.0536 72.7561 96.2694 72.6698 96.9599 72.6266H97.1757V71.9792H92.644V72.6266H92.8598C93.5504 72.6698 93.7662 72.7561 93.8525 72.8424C93.8956 72.8856 94.0251 73.0582 94.0251 73.6625V79.8774C94.0251 80.5248 93.8956 80.6974 93.8525 80.6974C93.7662 80.7406 93.5504 80.8701 92.8598 80.9132H92.6872V81.5606H97.2189V80.9132H97.0463C96.2694 80.9132 96.0104 80.7837 95.9673 80.7406Z" fill="#003A70"/>
<path d="M104.556 79.4458C104.168 79.8342 103.779 80.1363 103.434 80.309C102.873 80.6542 102.225 80.7837 101.535 80.7837C100.585 80.7837 99.8085 80.4384 99.2042 79.7479C98.6 79.0573 98.2547 78.1078 98.2547 76.8994C98.2547 75.6046 98.5568 74.5688 99.1611 73.8351C99.7653 73.1014 100.499 72.7561 101.405 72.7561C102.312 72.7561 103.002 73.1014 103.563 73.7488C103.865 74.094 104.081 74.6119 104.254 75.173L104.297 75.3025H104.988L104.858 71.7634H104.211L104.168 71.8929C104.124 71.9792 104.081 72.0655 103.995 72.1087C103.909 72.1519 103.822 72.195 103.736 72.195C103.693 72.195 103.563 72.1519 102.873 71.9792C102.312 71.8066 101.794 71.7634 101.276 71.7634C99.7653 71.7634 98.5137 72.2813 97.6073 73.274C96.701 74.2235 96.2694 75.432 96.2694 76.8562C96.2694 78.2373 96.701 79.4026 97.5642 80.309C98.4705 81.3016 99.7221 81.8195 101.276 81.8195C102.225 81.8195 103.132 81.5606 103.952 81.0427C104.426 80.7406 104.815 80.3521 105.16 79.9637L105.29 79.8342L104.772 79.3163L104.556 79.4458Z" fill="#003A70"/>
<path d="M114.483 80.9563C114.224 80.9132 114.051 80.87 113.878 80.7837C113.706 80.6974 113.576 80.5679 113.404 80.3521L110.728 77.072C111.375 76.9425 111.936 76.6836 112.325 76.3383C112.843 75.9067 113.102 75.3456 113.102 74.5687C113.102 73.4466 112.54 72.6697 111.418 72.2382C110.857 72.0224 110.167 71.936 109.347 71.936H105.29V72.5834H105.462C106.067 72.6266 106.239 72.7561 106.326 72.7992C106.369 72.8424 106.498 73.0582 106.498 73.6192V79.6615C106.498 80.3952 106.412 80.5679 106.369 80.6542C106.326 80.6974 106.153 80.8268 105.505 80.9132H105.333V81.5605H109.649V80.9132H109.476C108.829 80.87 108.656 80.7405 108.57 80.6974C108.527 80.6542 108.397 80.4816 108.397 79.8773V77.3309H108.699L112.195 81.6469H114.742V80.9995L114.483 80.9563ZM108.311 76.3814V73.1445C108.311 72.9719 108.354 72.9287 108.354 72.9287C108.354 72.9287 108.483 72.8855 108.958 72.8855C109.519 72.8855 109.951 72.9719 110.296 73.1013C110.9 73.3603 111.159 73.835 111.159 74.5687C111.159 75.3025 110.857 75.8204 110.167 76.0793C109.821 76.252 109.174 76.3814 108.311 76.3814Z" fill="#003A70"/>
</svg>
