<svg xmlns="http://www.w3.org/2000/svg" width="35" height="35" viewBox="0 0 35 35">
    <g fill="none" fill-rule="evenodd">
        <g fill="#1A2D3D" fill-rule="nonzero">
            <g>
                <g>
                    <path d="M22.323 0c.23 0 .459.003.685.009l.448.015.222.01.439.026.431.033c.57.05 1.12.118 1.642.204l.386.067c.446.083.87.18 1.268.288l.335.096c1.947.588 3.216 1.493 3.315 2.611l.006.141v16.333c0 1.838-2.572 3.345-6.074 3.877l-.4.056c-.674.087-1.379.137-2.103.148-2.26.034-3.974-.3-4.916-.715-.637 1.984-4.696 3.634-8.824 3.634-4.797 0-8.67-2.093-8.787-4.532L0 9.917c0-1.783 2.129-3.142 5.306-3.744l.394-.07c.998-.165 2.09-.258 3.245-.269h.232c1.008 0 1.969.061 2.863.179l.408.058c.135.02.268.043.399.066l.353.067-.027-2.686V3.5c0-1.343 1.657-2.394 4.166-2.981l.364-.08c.678-.143 1.412-.252 2.187-.326l.426-.037c.144-.011.288-.021.434-.03l.442-.022C21.562.008 21.94 0 22.323 0zM1.475 20.19l.064 1.979c0 1.668 3.322 3.498 7.644 3.498 2.106 0 4.186-.487 5.663-1.143l.27-.125c1.049-.507 1.739-1.098 1.825-1.64l.008-.073-.001-.054.035-1.897c-1.7 1.26-4.758 2.133-7.67 2.002-2.848-.13-5.032-.738-6.634-1.684-.491-.29-.89-.583-1.204-.864zm28.88-2.248c-.725.514-1.744.958-2.909 1.287l-.356.095c-1.2.307-2.532.491-3.848.507-1.352.017-2.717-.07-4.023-.226-.251-.03-.49-.061-.713-.093l-.355-.054-.045 2.458.055.047c-.006-.01-.002-.008.008-.004l.14.073c.205.102.47.206.799.302.95.28 2.206.438 3.798.414.843-.013 1.652-.085 2.405-.203l.371-.063.182-.034.357-.074c.235-.052.462-.108.68-.168l.324-.092.31-.099c1.672-.557 2.755-1.353 2.817-2.113l.003-.069v-1.89zm-29.01-1.774l.074 2.238c.075.042.142.1.193.175l.072.117.063.086.09.11c.034.042.073.086.117.134.315.341.743.688 1.299 1.016 1.436.847 3.44 1.406 6.111 1.527.99.045 1.998-.044 2.947-.222l.353-.071.175-.039.342-.083c.283-.072.558-.151.822-.237l.311-.106.152-.054.295-.114.282-.118c.947-.414 1.658-.9 1.968-1.368l.043-2.27c-.882.575-2.151 1.066-3.575 1.385l-.368.078-.375.07c-1.068.188-2.197.276-3.3.234-2.697-.105-4.86-.653-6.538-1.505-.658-.334-1.17-.673-1.552-.983zm29.01-2.131c-.774.537-1.9.966-3.257 1.26l-.373.077-.19.036-.39.066-.4.06c-.067.01-.134.018-.203.027l-.413.049c-.348.038-.705.068-1.07.09l-.44.024-.223.008-.45.012c-.152.003-.304.004-.458.004-1.312 0-2.563-.095-3.699-.277l-.479-.085-.007.05c-.019.083-.047.166-.083.249l-.045 2.583.01.012.07.013.2.031.43.061.467.06c1.26.15 2.578.234 3.876.218.73-.009 1.47-.08 2.183-.194l.354-.06.175-.034.345-.071c.227-.05.45-.103.668-.16l.32-.089c.053-.015.106-.03.157-.046l.306-.095.294-.1c.096-.033.19-.067.28-.102l.268-.106c.999-.412 1.674-.882 1.771-1.29l.005-.029v-2.252zM1.21 11.96l.086 2.644c.092.026.178.075.25.146l.097.113.08.083.11.105c.043.038.09.08.143.125.369.314.843.631 1.432.93 1.53.778 3.534 1.285 6.071 1.384 1.896.073 3.862-.256 5.463-.857 1.09-.41 1.869-.912 2.14-1.25l.06-3.35-.005.004c-1.52 1.183-4.367 1.902-7.755 1.92h-.231c-3.324-.015-6.312-.769-7.915-1.977l-.026-.02zm29.144-2.006c-.774.537-1.9.966-3.257 1.26l-.373.077-.19.036-.39.066-.4.06-.203.027-.413.049c-.348.037-.705.068-1.07.09l-.44.023c-.074.004-.149.006-.223.009l-.45.012c-.152.002-.304.004-.458.004-1.503 0-2.926-.124-4.187-.363l-.052 2.883.04.01c1.24.253 2.673.386 4.2.386.217 0 .433-.003.646-.009l.423-.015.415-.023c.275-.018.545-.04.808-.067l.391-.043.192-.024.377-.053.366-.058.355-.063.344-.07.332-.073c.162-.038.32-.078.473-.12l.299-.084.284-.089.27-.092.254-.095c.986-.389 1.587-.85 1.634-1.299l.003-.056V9.954zM9.177 7c-.681 0-1.337.03-1.959.088l-.41.042c-.134.015-.267.032-.399.05l-.388.056c-.128.02-.253.042-.377.064l-.366.071c-.24.05-.47.103-.693.16l-.328.09c-1.843.529-3.011 1.337-3.105 2.185l-.007.11c0 .81 1.202 1.631 3.05 2.187l.323.092.335.087c.227.056.462.109.704.157l.367.069.188.031.381.059c.837.12 1.734.188 2.663.192 1.21.005 2.339-.087 3.343-.251l.372-.065c2.555-.479 4.232-1.44 4.308-2.457l.003-.083v-.017c0-.914-1.244-1.791-3.25-2.34l-.077.016-.067.005c-.152.002-.291-.057-.395-.155-.105-.026-.214-.05-.325-.073l-.364-.07c-.988-.18-2.1-.287-3.3-.299L9.176 7zm21.178-1.572l-.09.065c-1.463 1.038-4.115 1.7-7.342 1.887l-.545.027c-3.109.127-6.196-.625-7.887-1.836l-.153-.114.012 1.024c2.43.696 3.977 1.91 3.977 3.436l-.002.027h.002l-.003.177c1.233.248 2.653.379 4.164.379.218 0 .434-.003.647-.009l.423-.015.415-.023c.275-.018.545-.04.808-.067l.391-.043.192-.024.377-.053.366-.058.355-.064.344-.069.332-.073c.162-.038.32-.078.473-.12l.299-.084.284-.089.27-.092.254-.096c.986-.388 1.587-.849 1.634-1.298l.003-.056v-2.74zm-8.032-4.261c-.664 0-1.309.027-1.925.077l-.407.037-.2.02-.393.047-.384.053-.372.058c-.245.04-.482.085-.712.133l-.337.074c-.331.076-.643.159-.933.248l-.282.09c-1.235.415-2.004.935-2.057 1.44l-.003.056-.001.011h.001v.006c0 .581.722 1.192 1.864 1.688l.27.113.285.108c.243.088.5.171.768.248l.328.09c.277.072.565.137.862.195l.36.066.367.059c.866.127 1.785.19 2.711.164l.199-.006c.154-.007.307-.014.459-.023l.45-.029.44-.036.217-.02.426-.046.21-.025.41-.055c.135-.019.268-.04.399-.06l.388-.066c.127-.023.252-.047.375-.071l.363-.077.35-.08.337-.087.322-.09.308-.094c1.553-.497 2.508-1.151 2.566-1.818l.003-.065c0-.503-.73-1.025-1.935-1.448l-.276-.093c-.094-.03-.191-.06-.29-.088l-.306-.085-.319-.081-.164-.039-.339-.074c-.172-.035-.35-.07-.53-.101l-.37-.061-.378-.056-.39-.05-.398-.043-.203-.02-.412-.033c-.485-.035-.987-.056-1.5-.06l-.222-.001z" transform="translate(-1332 -569) translate(1332 569) translate(1.167 3.5)"/>
                </g>
            </g>
        </g>
    </g>
</svg>
