<svg width="37" height="36" viewBox="0 0 37 36" fill="none" xmlns="http://www.w3.org/2000/svg">
<path fill-rule="evenodd" clip-rule="evenodd" d="M36.2002 18C36.2002 27.9411 28.1413 36 18.2002 36C8.25907 36 0.200195 27.9411 0.200195 18C0.200195 8.05887 8.25907 0 18.2002 0C28.1413 0 36.2002 8.05887 36.2002 18ZM13.2002 11.5C13.2002 10.6716 13.8718 10 14.7002 10C15.5286 10 16.2002 10.6716 16.2002 11.5V24.5C16.2002 25.3284 15.5286 26 14.7002 26C13.8718 26 13.2002 25.3284 13.2002 24.5V11.5ZM21.7002 10C20.8718 10 20.2002 10.6716 20.2002 11.5V24.5C20.2002 25.3284 20.8718 26 21.7002 26C22.5286 26 23.2002 25.3284 23.2002 24.5V11.5C23.2002 10.6716 22.5286 10 21.7002 10Z" fill="#32374B"/>
</svg>
