<svg width="38" height="39" viewBox="0 0 38 39" fill="none" xmlns="http://www.w3.org/2000/svg">
<g clip-path="url(#clip0_550_9409)">
<path fill-rule="evenodd" clip-rule="evenodd" d="M19 39C29.4935 39 38 30.2697 38 19.5C38 8.73033 29.4935 0 19 0C8.50647 0 0 8.73033 0 19.5C0 30.2697 8.50647 39 19 39ZM16.2811 27.6055L27.4946 19.7317C27.565 19.6821 27.6258 19.6197 27.6742 19.5474C27.8898 19.224 27.8096 18.783 27.4946 18.5617L16.2811 10.688C16.1664 10.6072 16.031 10.5646 15.8914 10.5646C15.51 10.5646 15.2005 10.8823 15.2005 11.2737V27.0212C15.2005 27.163 15.242 27.3034 15.3207 27.4211C15.5363 27.7445 15.966 27.8267 16.2811 27.6055Z" fill="white"/>
</g>
<defs>
<clipPath id="clip0_550_9409">
<rect width="38" height="39" fill="white"/>
</clipPath>
</defs>
</svg>
