<svg width="150" height="150" viewBox="0 0 150 150" fill="none" xmlns="http://www.w3.org/2000/svg">
<path d="M114.897 66.4608C107.307 66.4608 101.51 70.413 101.51 77.291C101.51 83.0883 106.791 87.186 113.871 87.186C119.259 87.186 123.719 83.2901 125 80.8261C125 80.0655 124.23 79.7473 123.517 79.7473C122.283 81.6448 118.797 83.0883 117.365 83.0321C108.795 82.7216 107.41 79.2875 107.307 75.7001C107.148 71.8003 111.358 68.4088 114.951 68.6746C117.047 68.8182 117.773 72.2504 119.608 73.4863C120.186 73.8045 121.513 73.7443 122.388 73.593C123.056 73.4863 124.843 73.0808 124.843 71.5383C124.843 70.2578 123.254 68.8182 121.723 67.8966C120.186 67.1845 116.744 66.4608 114.897 66.4608Z" fill="#F7F7F7"/>
<path d="M64.2362 81.3384C64.2362 84.5184 63.4194 86.2083 60.8525 86.3597L60.9127 86.8777C65.2102 86.8292 69.5834 86.8777 73.7781 86.7807L73.8267 86.5149C71.8884 86.5149 70.3925 84.4641 70.3925 81.9108V73.339C70.3925 71.2319 72.9555 69.899 74.7017 70.0542C77.4121 70.3064 78.908 72.0507 78.908 73.5931V82.0058C78.908 84.5708 78.1378 86.1618 76.1394 86.3111V86.7807H87.9319V86.4198C86.1857 86.2083 84.9576 84.6154 84.9576 82.2134V73.3797C84.9576 71.49 86.597 70.2056 89.5267 70.159C92.0917 70.1066 93.6264 72.008 93.6264 73.8046V81.8002C93.6264 84.5184 92.8096 86.2083 90.7607 86.4198V86.7807C95.068 86.8292 98.603 86.8292 102.858 86.7807V86.5149C100.607 86.5149 99.8389 85.0326 99.8389 81.9108V73.0809C99.8389 70.159 98.246 66.6686 93.7835 66.6686C90.7607 66.6686 88.5411 68.147 87.2761 68.5758C86.4011 68.9211 85.7822 69.3363 85.5746 69.3363C85.1729 69.3363 84.715 69.0802 84.1427 68.4652C83.062 67.3282 81.1199 66.6686 79.0613 66.6686C76.442 66.6686 73.8267 68.147 72.5927 68.5758C72.4472 68.6165 71.5275 69.0802 71.4169 69.0802C71.2132 69.0802 70.3925 69.0802 70.3925 68.9813C70.3925 66.5172 70.5477 67.7454 70.4468 66.0031H68.7511C68.2447 66.0031 67.3619 66.9305 66.3394 67.3282C65.1074 67.8521 62.6433 67.7958 61.6286 68.0558V69.7962L64.2867 70.3064V73.6979L64.2362 81.3384Z" fill="#F7F7F7"/>
<path d="M52.6972 86.8293C57.214 86.6178 61.5678 85.6477 61.5678 81.2861C61.5678 78.1139 58.0852 76.1058 54.3949 74.5168C52.0259 73.5428 48.5976 72.1071 48.5976 70.974C48.5976 69.6449 51.2091 67.0781 53.7217 69.1289L58.0852 72.7745L60.0874 72.3573L58.9641 66.9306C57.9338 66.9772 57.214 67.0334 53.4655 66.4087C48.8459 65.7451 43.361 68.0559 43.361 72.3573C43.361 75.2405 47.5208 77.235 50.8055 78.5679C52.5983 79.3343 55.7841 80.4713 55.7841 82.2136C55.7841 83.8957 52.802 84.3652 51.114 84.3652C48.2406 84.3652 45.0548 80.5159 45.0548 80.5159H43.1631L44.1875 86.2686C44.5387 85.9543 45.8309 85.9989 46.0889 86.1134C47.0066 86.4626 50.3399 86.9845 52.6972 86.8293Z" fill="#F7F7F7"/>
<path d="M41.8196 69.3903V66.7187L36.2318 66.7711C35.5217 66.7711 35.5624 66.6197 35.5624 65.6962L35.6187 62.0506L32.7957 62.0001C31.9304 63.9481 30.8516 65.2325 30.2405 65.4867L25 67.7955V69.4388L26.9596 69.4893C27.8308 69.4893 28.1877 69.4388 28.1877 70.4671V81.2857C28.1877 84.5705 29.9786 86.9841 34.6059 87.0908C38.0808 87.1858 40.1918 85.6473 41.6721 84.2076L41.2647 82.8204C40.6458 83.2375 40.1413 83.5965 39.3129 83.5965C35.3665 83.5965 35.4713 80.5154 35.4713 77.7992V70.4671C35.4713 69.3903 35.5624 69.3903 36.2881 69.3903H41.8196Z" fill="#F7F7F7"/>
</svg>
