<svg width="150" height="150" viewBox="0 0 150 150" fill="none" xmlns="http://www.w3.org/2000/svg">
<path d="M25 36C32.8948 36 40.8507 36 48.9903 36C48.9903 62.1935 48.9903 88.3257 48.9903 114.642C41.0955 114.642 33.1396 114.642 25 114.642C25 88.4482 25 62.3159 25 36Z" fill="#FEFBFB"/>
<path d="M87.0564 36.1226C87.1176 45.1801 87.1788 54.2377 87.1788 63.3564C87.1788 79.452 87.1788 95.5475 87.1788 111.704C87.1788 112.622 87.1788 113.54 87.1788 114.642C78.978 114.642 71.022 114.642 62.8213 114.642C62.8213 88.3871 62.8213 62.316 62.8213 36.245C70.9609 36.1838 79.0392 36.1226 87.0564 36.1226Z" fill="#FEFBFB"/>
<path d="M100.948 36C108.966 44.3844 116.677 52.3403 125 61.0307C125 78.0442 125 96.2817 125 114.703C116.983 114.703 109.027 114.703 100.948 114.703C100.948 88.5706 100.948 62.6219 100.948 36Z" fill="#FEFBFB"/>
</svg>
